<svg width="56" height="56" viewBox="0 0 56 56" fill="none" xmlns="http://www.w3.org/2000/svg">
<path d="M3 0C1.34315 0 0 1.34315 0 3V10H56V3C56 1.34315 54.6569 0 53 0H3Z" fill="#26DDF9"/>
<path d="M34.5 46C36.433 46 38 44.433 38 42.5C38 40.567 36.433 39 34.5 39C32.567 39 31 40.567 31 42.5C31 44.433 32.567 46 34.5 46Z" fill="#26DDF9"/>
<path d="M5 6C5.55228 6 6 5.55228 6 5C6 4.44772 5.55228 4 5 4C4.44772 4 4 4.44772 4 5C4 5.55228 4.44772 6 5 6Z" fill="white"/>
<path d="M10 5C10 5.55228 9.55228 6 9 6C8.44771 6 8 5.55228 8 5C8 4.44772 8.44771 4 9 4C9.55228 4 10 4.44772 10 5Z" fill="white"/>
<path d="M13 6C13.5523 6 14 5.55228 14 5C14 4.44772 13.5523 4 13 4C12.4477 4 12 4.44772 12 5C12 5.55228 12.4477 6 13 6Z" fill="white"/>
<path fill-rule="evenodd" clip-rule="evenodd" d="M0 38.1831C0 40.2798 1.68272 42 3.7835 42H20C20.5523 42 21 41.5523 21 41C21 40.4477 20.5523 40 20 40H3.7835C2.80971 40 2 39.1978 2 38.1831V10H54V38.1831C54 39.1978 53.1903 40 52.2165 40H49C48.4477 40 48 40.4477 48 41C48 41.5523 48.4477 42 49 42H52.2165C54.3173 42 56 40.2798 56 38.1831L56 3C56 1.34315 54.6569 0 53 0H3C1.34315 0 0 1.34315 0 3V38.1831ZM2 3.8169C2 2.80218 2.80971 2 3.7835 2H52.2165C53.1903 2 54 2.80218 54 3.8169L54 8H2V3.8169Z" fill="white"/>
<path fill-rule="evenodd" clip-rule="evenodd" d="M38 42.5C38 44.0892 36.9409 45.431 35.49 45.858C35.4966 45.9044 35.5 45.9518 35.5 46V48C35.5 48.5523 35.0523 49 34.5 49C33.9477 49 33.5 48.5523 33.5 48V46C33.5 45.9518 33.5034 45.9044 33.51 45.858C32.0591 45.431 31 44.0892 31 42.5C31 40.567 32.567 39 34.5 39C36.433 39 38 40.567 38 42.5ZM36 42.5C36 43.3284 35.3284 44 34.5 44C33.6716 44 33 43.3284 33 42.5C33 41.6716 33.6716 41 34.5 41C35.3284 41 36 41.6716 36 42.5Z" fill="white"/>
<path fill-rule="evenodd" clip-rule="evenodd" d="M23.5 33.3052C23.5 32.5844 24.0844 32 24.8052 32H44.1948C44.9156 32 45.5 32.5844 45.5 33.3052V45C45.5 51.0751 40.5751 56 34.5 56C28.4249 56 23.5 51.0751 23.5 45V33.3052ZM25.5 45V34H43.5V45C43.5 49.9706 39.4706 54 34.5 54C29.5294 54 25.5 49.9706 25.5 45Z" fill="white"/>
<path d="M29.5 27C29.5 24.2386 31.7386 22 34.5 22C37.2614 22 39.5 24.2386 39.5 27V29C39.5 29.5523 39.0523 30 38.5 30C37.9477 30 37.5 29.5523 37.5 29V27C37.5 25.3431 36.1569 24 34.5 24C32.8431 24 31.5 25.3431 31.5 27V29C31.5 29.5523 31.0523 30 30.5 30C29.9477 30 29.5 29.5523 29.5 29V27Z" fill="white"/>
<path d="M7 16C6.44772 16 6 16.4477 6 17C6 17.5523 6.44772 18 7 18H44C44.5523 18 45 17.5523 45 17C45 16.4477 44.5523 16 44 16H7Z" fill="white"/>
<path d="M6 25C6 24.4477 6.44772 24 7 24H23C23.5523 24 24 24.4477 24 25C24 25.5523 23.5523 26 23 26H7C6.44772 26 6 25.5523 6 25Z" fill="white"/>
<path d="M7 32C6.44772 32 6 32.4477 6 33C6 33.5523 6.44772 34 7 34H16.5C17.0523 34 17.5 33.5523 17.5 33C17.5 32.4477 17.0523 32 16.5 32H7Z" fill="white"/>
</svg>
