<svg width="56" height="56" viewBox="0 0 56 56" fill="none" xmlns="http://www.w3.org/2000/svg">
<path d="M50.0486 10.7805L50.0628 10.7578C44.9377 4.20901 36.9603 0 27.9998 0C27.192 0 26.3922 0.0342088 25.6017 0.101257C25.5251 0.316718 25.3775 0.616528 25.2105 0.955759C24.7724 1.84564 24.2008 3.00679 24.4272 3.62821C24.7467 4.50488 27.3548 5.3153 27.3548 5.3153C27.3548 5.3153 26.6635 8.00903 27.8621 8.96471C28.6194 9.56844 29.6632 9.28225 30.5104 9.04997C31.0042 8.91457 31.4313 8.79749 31.6958 8.88571C32.4936 9.15183 32.3528 10.4575 32.2193 11.6956C32.1156 12.6574 32.0163 13.5783 32.3649 13.9393C32.8515 14.443 34.8637 16.4117 36.8469 16.6891C38.5678 15.4594 42.2586 13 43.2548 13C44.6556 12.6532 47.9563 11.7809 50.0486 10.7805Z" fill="#26DDF9"/>
<path d="M0 27.9999C0 36.291 3.60364 43.7404 9.33008 48.8673L11.7278 45.2815C11.7278 45.2815 13.5028 44.7718 13.8849 44.0863C15.0835 41.9367 12.9558 38.193 12.9558 38.193C12.9558 38.193 12.8796 36.8908 12.667 36C11.8418 35.1281 10.1223 33.3958 9.84572 33.4421C9.38408 32.6525 7.81496 29.8336 7.81496 27.9991C7.81496 26.2785 8.89315 25.7115 10.0155 25.1212C10.2963 24.9736 10.5798 24.8244 10.8499 24.6555C13 23.5 14.2848 22.186 14.2848 22.186C14.2848 22.186 17.0003 21.4686 17.6393 20.3537C18.1843 19.4025 17.2767 16.3703 16.9983 15.5C16.8335 14.997 16.8976 14.4538 16.9634 13.8967C17.0346 13.2935 17.1077 12.6739 16.8943 12.0711C16.7416 11.6399 16.263 11.099 15.7182 10.4832C15.3132 10.0254 14.8715 9.52622 14.5 9C14.0521 8.36556 13.6533 7.70754 13.2914 7.11045C12.7455 6.20959 12.2836 5.44742 11.8637 5.11426C4.68669 10.1839 0 18.5446 0 27.9999Z" fill="#26DDF9"/>
<path d="M29.4999 23.5C27.9999 25 25.0999 28.3 25.4999 29.5C25.7545 30.2639 26.6576 31.0278 27.4826 31.7257C28.2775 32.3982 29 33.0093 29 33.5C29 33.8951 29.2342 34.2902 29.4866 34.7162C29.8731 35.3683 30.3024 36.0927 30 37C29.8016 37.5951 29.7607 38.1115 29.721 38.6116C29.6606 39.3721 29.6033 40.0951 29 41C28 42.5 28 48 30 48.5C31.6 48.9 35.6667 46.3333 37.5 45C38.1667 44.8333 39.6 44.3 40 43.5C40.1263 43.2473 40.2527 42.8351 40.4032 42.3439C40.8484 40.891 41.5053 38.7473 43 38C44.6595 37.1703 46.6631 34.9636 47.583 33.9506C47.7717 33.7428 47.9149 33.5851 48 33.5C48.5 33 49 30 47.5 29C46.75 28.5 45.75 28 44.875 27.5625C44 27.125 43.25 26.75 43 26.5C42.926 26.426 42.8629 26.33 42.7897 26.2186C42.3684 25.5777 41.6115 24.426 36.5 24C35.5797 23.9233 35.2086 23.5316 34.864 23.1677C34.5358 22.8212 34.2316 22.5 33.5 22.5L29.4999 23.5Z" fill="#26DDF9"/>
<path fill-rule="evenodd" clip-rule="evenodd" d="M28 54C42.3594 54 54 42.3594 54 28C54 13.6406 42.3594 2 28 2C13.6406 2 2 13.6406 2 28C2 42.3594 13.6406 54 28 54ZM28 56C43.464 56 56 43.464 56 28C56 12.536 43.464 0 28 0C12.536 0 0 12.536 0 28C0 43.464 12.536 56 28 56Z" fill="white"/>
<path fill-rule="evenodd" clip-rule="evenodd" d="M12.4561 7.66218C12.0984 7.07214 11.8119 6.59931 11.5554 6.25451L13.1603 5.06104C13.4746 5.48364 13.8044 6.02792 14.1323 6.56916C14.1477 6.59463 14.1631 6.62009 14.1786 6.64553C14.5332 7.23067 14.9047 7.84 15.3164 8.42309C15.6536 8.90064 16.0537 9.35329 16.46 9.81281C16.5315 9.89371 16.6032 9.97482 16.6748 10.0563C16.9042 10.3175 17.1369 10.5884 17.3319 10.8502C17.52 11.1028 17.7195 11.4071 17.8364 11.7372C18.127 12.5578 18.0317 13.3688 17.966 13.9283L17.9642 13.944C17.8881 14.5923 17.859 14.9167 17.9481 15.1884L17.9503 15.1952C18.0937 15.6436 18.4038 16.6619 18.6083 17.7037C18.7103 18.2227 18.7922 18.7779 18.8073 19.2866C18.821 19.7511 18.7882 20.3589 18.5064 20.8507C18.2305 21.3321 17.7861 21.691 17.3903 21.9485C16.9777 22.2169 16.5192 22.4376 16.1092 22.6098C15.6954 22.7836 15.307 22.918 15.0234 23.0088C14.9395 23.0356 14.8641 23.0589 14.7992 23.0784C14.7766 23.0995 14.7521 23.1222 14.7258 23.1463C14.5571 23.301 14.3125 23.5159 13.9986 23.7676C13.3771 24.2658 12.4775 24.9129 11.3511 25.5209C11.0542 25.7048 10.7396 25.8701 10.4655 26.0141C10.3995 26.0488 10.3358 26.0823 10.2753 26.1145C9.93275 26.2967 9.66263 26.4522 9.4418 26.6249C9.23017 26.7904 9.08544 26.9559 8.98819 27.1451C8.89191 27.3323 8.81445 27.5966 8.81445 27.9989C8.81445 28.6946 9.12987 29.6947 9.57347 30.7128C9.91678 31.5008 10.2976 32.2129 10.5488 32.6588C10.6726 32.7348 10.7969 32.8276 10.9094 32.9171C11.1556 33.113 11.4464 33.3753 11.7369 33.6497C12.3226 34.2031 12.9727 34.8685 13.3928 35.3125C13.5135 35.44 13.5984 35.597 13.6392 35.7677C13.7609 36.2778 13.8384 36.878 13.8852 37.3265C13.9092 37.5558 13.9261 37.7557 13.9372 37.8987C13.9374 37.902 13.9377 37.9053 13.9379 37.9085C13.9989 38.0253 14.0808 38.1876 14.1741 38.386C14.3676 38.7978 14.6145 39.3752 14.8225 40.031C15.0292 40.6825 15.2074 41.442 15.2438 42.2112C15.28 42.9767 15.1786 43.8183 14.7578 44.573C14.5438 44.957 14.1984 45.2255 13.934 45.3987C13.6484 45.5858 13.3342 45.7396 13.0604 45.8583C12.7942 45.9737 12.5437 46.0656 12.3563 46.1297L10.3218 49.0692L8.67726 47.9309L10.905 44.7123C11.0363 44.5227 11.229 44.3843 11.4505 44.3205L11.4518 44.3201L11.4618 44.3171C11.4716 44.3142 11.4873 44.3095 11.5082 44.303C11.5502 44.29 11.6125 44.2701 11.6893 44.2441C11.8442 44.1915 12.0511 44.116 12.2647 44.0234C12.4824 43.929 12.6836 43.8269 12.8382 43.7256C12.9737 43.6369 13.0165 43.5854 13.0186 43.5854C13.1918 43.2667 13.2712 42.8389 13.246 42.3057C13.2206 41.7683 13.0916 41.1889 12.9161 40.6357C12.7421 40.0869 12.532 39.594 12.364 39.2367C12.2805 39.0591 12.2086 38.9174 12.1586 38.822C12.1337 38.7743 12.1143 38.7384 12.1017 38.7154L12.0882 38.6909L12.0859 38.6869C12.0103 38.5536 11.966 38.4044 11.9571 38.2514V38.2514L11.9569 38.2495L11.9564 38.2404L11.9539 38.2019C11.9516 38.1676 11.948 38.1166 11.9431 38.0522C11.9331 37.9232 11.9177 37.7418 11.8961 37.5343C11.861 37.1983 11.8118 36.8181 11.7479 36.4855C11.3534 36.0742 10.8319 35.5461 10.3634 35.1035C10.0862 34.8416 9.8437 34.625 9.66396 34.482C9.61798 34.4454 9.58196 34.4183 9.55513 34.399C9.31893 34.3273 9.11196 34.1691 8.98191 33.9467C8.74123 33.535 8.21199 32.5951 7.73996 31.5117C7.28359 30.4643 6.81445 29.1378 6.81445 27.9989C6.81445 27.3258 6.94763 26.74 7.20948 26.2306C7.47035 25.7232 7.83125 25.3455 8.20962 25.0496C8.57879 24.7608 8.98303 24.5365 9.33607 24.3487C9.41544 24.3065 9.4918 24.2663 9.5657 24.2274C9.84189 24.0821 10.0837 23.9548 10.319 23.8076C10.3377 23.7959 10.3567 23.7849 10.376 23.7745C11.3865 23.2314 12.1945 22.6505 12.7477 22.2071C13.0237 21.9858 13.2347 21.8 13.3742 21.6722C13.4438 21.6083 13.4955 21.559 13.5283 21.5271C13.5447 21.5112 13.5564 21.4996 13.5633 21.4928L13.5693 21.4867C13.6954 21.358 13.8541 21.2653 14.0283 21.2192V21.2192L14.0317 21.2183L14.0492 21.2135C14.0656 21.209 14.0912 21.2018 14.1249 21.1921C14.1924 21.1726 14.2917 21.143 14.4138 21.104C14.6594 21.0253 14.9898 20.9107 15.3347 20.7658C15.6834 20.6193 16.0236 20.4516 16.2998 20.2719C16.5928 20.0813 16.7275 19.9324 16.7711 19.8563C16.7695 19.8591 16.7699 19.8577 16.7716 19.8514C16.7797 19.8208 16.8179 19.6764 16.8081 19.3459C16.7976 18.9914 16.7375 18.5558 16.6458 18.0891C16.4637 17.1617 16.1817 16.2309 16.0463 15.8076C15.8112 15.0868 15.9021 14.3367 15.9644 13.8223C15.9691 13.7838 15.9736 13.7466 15.9778 13.7108C16.0486 13.1081 16.0684 12.7361 15.9511 12.4048C15.9349 12.359 15.8775 12.2457 15.7278 12.0448C15.5851 11.8531 15.3992 11.6346 15.1722 11.3762C15.1094 11.3047 15.0436 11.2304 14.9755 11.1534C14.5722 10.6979 14.0887 10.1519 13.6826 9.57664C13.2251 8.92869 12.82 8.26256 12.4682 7.6822L12.4561 7.66218Z" fill="white"/>
<path fill-rule="evenodd" clip-rule="evenodd" d="M33.3774 21.5H33.5005C34.0418 21.5 34.488 21.6264 34.8704 21.8598C35.1903 22.055 35.4304 22.3099 35.5796 22.4683C35.5919 22.4815 35.6037 22.494 35.6148 22.5057C35.7817 22.6817 35.8777 22.7727 35.9959 22.843C36.1004 22.9051 36.2694 22.9773 36.5835 23.0035C39.6374 23.2579 41.3247 23.7753 42.3371 24.3983C42.8625 24.7217 43.1874 25.0617 43.4177 25.3688C43.5053 25.4856 43.5811 25.6011 43.6311 25.6773C43.6408 25.6921 43.6495 25.7054 43.6572 25.7169C43.6869 25.7618 43.7035 25.7848 43.7107 25.7946C43.7231 25.8044 43.756 25.8295 43.8194 25.8706C43.9097 25.9291 44.0306 25.9999 44.1839 26.0838C44.4921 26.2526 44.8797 26.4466 45.3227 26.6681L45.3556 26.6845C46.2083 27.1108 47.2531 27.6332 48.0552 28.1679C49.2384 28.9567 49.5005 30.4093 49.5005 31.4375C49.5005 31.9896 49.4276 32.5258 49.3132 32.9739C49.2559 33.1981 49.1844 33.4156 49.0979 33.6102C49.0189 33.788 48.8965 34.0182 48.7076 34.2071C48.6398 34.2749 48.5246 34.4018 48.3533 34.5905C48.2613 34.6919 48.1531 34.811 48.0274 34.9485C47.6869 35.3206 47.2538 35.7859 46.7701 36.2696C45.8282 37.2115 44.605 38.3158 43.4477 38.8944C42.8097 39.2134 42.2978 40.0123 41.87 41.1124C41.6669 41.6346 41.5054 42.1617 41.3557 42.6502L41.355 42.6524C41.3492 42.6715 41.3433 42.6907 41.3374 42.7101C41.2054 43.141 41.0592 43.6186 40.8949 43.9472C40.5453 44.6465 39.8386 45.1024 39.3097 45.3758C38.8255 45.6262 38.3209 45.808 37.9375 45.9178C36.9873 46.5988 35.5498 47.5396 34.1275 48.2856C33.379 48.6782 32.6074 49.0313 31.8971 49.2609C31.2289 49.4769 30.4452 49.642 29.758 49.4701C28.8129 49.2339 28.2581 48.4503 27.9432 47.7277C27.6171 46.9796 27.4458 46.0776 27.3784 45.2017C27.3104 44.3168 27.3438 43.3979 27.4645 42.5871C27.5803 41.8096 27.794 41.0069 28.1684 40.4453C28.5473 39.8769 28.6402 39.4276 28.6929 38.9005C28.7027 38.8028 28.711 38.6955 28.72 38.5797C28.7591 38.0737 28.8106 37.4073 29.0518 36.6838C29.1644 36.3459 29.0895 36.0444 28.8138 35.5481C28.7556 35.4434 28.6956 35.342 28.6286 35.2291C28.6153 35.2066 28.6018 35.1838 28.5879 35.1603C28.5085 35.0259 28.4191 34.873 28.3381 34.7158C28.1932 34.4346 28.0254 34.0489 28.003 33.6005C27.9703 33.549 27.9076 33.4674 27.7985 33.3523C27.5586 33.0995 27.2225 32.8152 26.8066 32.4632L26.792 32.4509C26.392 32.1125 25.9297 31.72 25.5359 31.3088C25.153 30.9089 24.7476 30.4041 24.5517 29.8162C24.4247 29.4353 24.4533 29.0562 24.5175 28.7525C24.5833 28.441 24.7034 28.1299 24.843 27.8369C25.1221 27.2514 25.5368 26.6204 25.9848 26.0167C26.8853 24.8029 28.0209 23.5652 28.7933 22.7929L28.9891 22.597L33.3774 21.5ZM33.6066 23.5042L30.0145 24.4022C29.3002 25.1324 28.3452 26.1918 27.591 27.2083C27.1764 27.7671 26.8474 28.2798 26.6484 28.6974C26.549 28.9061 26.4964 29.0613 26.4743 29.1659C26.4687 29.1924 26.4658 29.2119 26.4644 29.2251C26.5298 29.3865 26.6864 29.6184 26.9805 29.9256C27.2899 30.2487 27.6713 30.575 28.0839 30.9241C28.1048 30.9418 28.1258 30.9596 28.147 30.9775C28.5206 31.2934 28.9319 31.6411 29.2494 31.9758C29.4196 32.1552 29.5941 32.3626 29.7302 32.5916C29.8636 32.8159 30.0005 33.1283 30.0005 33.5C30.0005 33.5087 30.006 33.5862 30.116 33.7999C30.1678 33.9004 30.2308 34.0092 30.3095 34.1424C30.3212 34.1621 30.3332 34.1825 30.3456 34.2034C30.4125 34.3162 30.4892 34.4455 30.5621 34.5769C30.9115 35.2056 31.3365 36.1541 30.9492 37.3162C30.7925 37.7864 30.7623 38.1595 30.7236 38.6369C30.7121 38.78 30.6997 38.9324 30.683 39.0995C30.6107 39.8224 30.4536 40.6231 29.8325 41.5547C29.707 41.7431 29.5457 42.1904 29.4427 42.8817C29.3447 43.5396 29.3156 44.3082 29.3725 45.0483C29.4302 45.7974 29.5714 46.4579 29.7766 46.9285C29.9929 47.4247 30.188 47.5161 30.243 47.5299C30.3557 47.558 30.6804 47.5523 31.282 47.3578C31.8415 47.177 32.5012 46.8802 33.1985 46.5144C34.5902 45.7845 36.0234 44.8378 36.9123 44.1913L37.0695 44.077L37.258 44.0299C37.5292 43.9621 37.9794 43.8121 38.3913 43.5992C38.8457 43.3642 39.0557 43.1535 39.1061 43.0528C39.1844 42.8961 39.2825 42.5896 39.4428 42.0664L39.4509 42.04C39.5965 41.565 39.7761 40.9787 40.006 40.3876C40.4532 39.2377 41.1913 37.7866 42.5533 37.1056C43.396 36.6842 44.4228 35.7885 45.3559 34.8554C45.8097 34.4016 46.2203 33.9607 46.5517 33.5984C46.6435 33.4981 46.7328 33.3998 46.8169 33.3072C46.9945 33.1116 47.1488 32.9417 47.2534 32.8336C47.2578 32.825 47.2635 32.8133 47.2703 32.798C47.3009 32.729 47.3388 32.6222 47.3753 32.4792C47.4484 32.1929 47.5005 31.8229 47.5005 31.4375C47.5005 30.5907 47.2626 30.0433 46.9458 29.8321C46.2582 29.3737 45.3197 28.9026 44.4283 28.4569L44.4153 28.4505C43.9877 28.2367 43.5679 28.0267 43.2233 27.838C42.9122 27.6677 42.5351 27.4489 42.2934 27.2071C42.1523 27.066 42.0492 26.9109 41.9903 26.8221C41.975 26.7991 41.9611 26.7779 41.9481 26.7582C41.9 26.6851 41.8645 26.6311 41.8177 26.5687C41.7198 26.4383 41.5759 26.2783 41.2889 26.1017C40.6763 25.7247 39.3636 25.2421 36.4174 24.9965C35.8333 24.9479 35.3657 24.7951 34.9736 24.562C34.5953 24.337 34.3347 24.0623 34.1637 23.882C33.971 23.6788 33.9044 23.6132 33.8284 23.5669C33.796 23.5471 33.738 23.5156 33.6066 23.5042ZM47.2431 32.8523C47.2431 32.8522 47.2434 32.8518 47.244 32.8508Z" fill="white"/>
<path fill-rule="evenodd" clip-rule="evenodd" d="M23.8441 1.45591C24.1192 0.997408 24.4848 0.60109 24.793 0.292969L26.2072 1.70718C25.932 1.98239 25.7059 2.24024 25.5591 2.48487C25.4138 2.72707 25.3941 2.87624 25.4051 2.96548C25.414 3.03763 25.461 3.22784 25.809 3.51907C26.1696 3.82072 26.7976 4.18053 27.8419 4.56028L28.0504 4.6361L28.2072 4.79296C28.6062 5.19189 28.5772 5.71945 28.5691 5.86606L28.569 5.86923C28.5591 6.04948 28.5247 6.25903 28.4993 6.4144C28.4951 6.43991 28.4912 6.46397 28.4876 6.48619C28.4233 6.88813 28.4049 7.15151 28.4617 7.35035C28.493 7.46005 28.564 7.63877 28.9856 7.80165C29.4694 7.98858 30.3577 8.12346 31.9235 8.00302L31.9618 8.00008H32.0002C32.2635 8.00008 32.5456 8.07954 32.7863 8.27605C33.0126 8.46072 33.1296 8.68943 33.1912 8.86705C33.3041 9.19294 33.2964 9.54189 33.2788 9.78355C33.2439 10.2627 33.116 10.8684 33.0032 11.4027C32.9949 11.4417 32.9868 11.4804 32.9787 11.5186C32.85 12.1302 32.7427 12.665 32.7169 13.0713C32.7118 13.1523 32.7108 13.2165 32.7119 13.2661C32.8657 13.3755 32.9983 13.498 33.1067 13.6064C33.2818 13.7816 33.4563 13.9846 33.6187 14.1787C33.6842 14.257 33.7487 14.3349 33.8129 14.4124C34.0849 14.7408 34.3491 15.0598 34.6448 15.3555C35.3828 16.0935 35.9629 16.3379 36.6288 16.0716C37.5175 15.7161 38.2525 15.0619 39.1163 14.2931C39.2701 14.1562 39.4281 14.0157 39.5917 13.8725C40.5815 13.0064 41.8375 12.0001 43.5002 12.0001C44.3621 12.0001 45.4656 11.7795 46.5403 11.4754C47.6011 11.1752 48.5605 10.8148 49.1062 10.5809L49.8941 12.4192C49.2732 12.6853 48.2326 13.075 47.085 13.3998C45.9513 13.7206 44.6382 14.0001 43.5002 14.0001C42.6628 14.0001 41.9189 14.4937 40.9087 15.3777C40.7774 15.4925 40.641 15.6148 40.4994 15.7418C39.6513 16.5025 38.6167 17.4305 37.3715 17.9286C35.5374 18.6622 34.1175 17.6567 33.2306 16.7697C32.8616 16.4007 32.5238 15.9923 32.2499 15.6611C32.1919 15.5909 32.1368 15.5242 32.0848 15.4621C31.9269 15.2734 31.8005 15.1287 31.6925 15.0207C31.5935 14.9217 31.5484 14.8923 31.5484 14.8923C31.5484 14.8923 31.55 14.893 31.5529 14.8945C31.0652 14.6506 30.8647 14.2055 30.7843 13.8855C30.7043 13.5677 30.7027 13.2314 30.7209 12.9445C30.7576 12.3664 30.9004 11.6825 31.0216 11.1066L31.0291 11.0712C31.1129 10.673 31.1855 10.3283 31.2326 10.0428C29.97 10.0793 28.9999 9.95127 28.2648 9.66725C27.3113 9.29888 26.7573 8.66511 26.5386 7.8998C26.3484 7.23387 26.4489 6.56992 26.5099 6.18763C25.6715 5.83794 25.0151 5.46253 24.5256 5.05295C23.9039 4.53273 23.5071 3.91669 23.4201 3.20968C23.3352 2.51974 23.5676 1.91683 23.8441 1.45591Z" fill="white"/>
</svg>
