<svg width="56" height="56" viewBox="0 0 56 56" fill="none" xmlns="http://www.w3.org/2000/svg">
<path d="M42.1009 35.9254C45.1108 35.9254 47.5509 33.4853 47.5509 30.4754C47.5509 27.4654 45.1108 25.0254 42.1009 25.0254C39.0909 25.0254 36.6509 27.4654 36.6509 30.4754C36.6509 33.4853 39.0909 35.9254 42.1009 35.9254Z" fill="#26DDF9"/>
<path d="M53.0012 49.0053C53.0012 43.8583 48.1211 39.1953 42.1012 39.1953C36.0813 39.1953 31.2012 43.8583 31.2012 49.0053H53.0012Z" fill="#26DDF9"/>
<path d="M21.2307 2.55765C21.7179 2.13809 22.4394 2.1178 22.9276 2.49143C25.0013 4.07859 28.9024 6.91207 32.1203 8.33177C34.8506 9.53634 37.7508 9.88976 39.7053 9.97777C40.501 10.0136 41.1004 10.6481 41.1004 11.3153V20.6654C41.1004 21.2176 41.5481 21.6654 42.1004 21.6654C42.6526 21.6654 43.1004 21.2176 43.1004 20.6654V11.3153C43.1004 9.45155 41.5279 8.0578 39.7953 7.97979C37.9621 7.89725 35.339 7.56583 32.9276 6.50194C29.9531 5.18962 26.2221 2.49439 24.1432 0.903222C22.8811 -0.062699 21.1085 0.0234929 19.9256 1.04211C18.2105 2.51904 15.1945 4.87908 12.0331 6.27385C9.39821 7.43634 6.88531 7.83152 5.16276 7.951C3.44772 8.06996 1.86035 9.4624 1.86035 11.3376V40.9323C1.86035 45.45 4.65505 49.4966 8.87997 51.0964L21.3132 55.8046C21.7596 55.9736 22.2517 55.9774 22.7007 55.8153L28.815 53.6077C29.3344 53.4201 29.6035 52.847 29.4159 52.3275C29.2284 51.8081 28.6552 51.539 28.1357 51.7266L22.0215 53.9342L9.58824 49.2261C6.14077 47.9206 3.86035 44.6186 3.86035 40.9323V11.3376C3.86035 10.6657 4.47519 10.0035 5.30115 9.9462C7.18218 9.81573 9.93627 9.38496 12.8404 8.10367C16.2761 6.58791 19.4712 4.07279 21.2307 2.55765Z" fill="white"/>
<path d="M23.4805 10.855C23.4805 10.3027 23.0328 9.85498 22.4805 9.85498C21.9282 9.85498 21.4805 10.3027 21.4805 10.855V45.735C21.4805 46.2873 21.9282 46.735 22.4805 46.735C23.0328 46.735 23.4805 46.2873 23.4805 45.735V10.855Z" fill="white"/>
<path fill-rule="evenodd" clip-rule="evenodd" d="M35.6504 30.4749C35.6504 26.9127 38.5382 24.0249 42.1004 24.0249C45.6626 24.0249 48.5504 26.9127 48.5504 30.4749C48.5504 34.0371 45.6626 36.9249 42.1004 36.9249C38.5382 36.9249 35.6504 34.0371 35.6504 30.4749ZM42.1004 26.0249C39.6427 26.0249 37.6504 28.0172 37.6504 30.4749C37.6504 32.9326 39.6427 34.9249 42.1004 34.9249C44.5581 34.9249 46.5504 32.9326 46.5504 30.4749C46.5504 28.0172 44.5581 26.0249 42.1004 26.0249Z" fill="white"/>
<path fill-rule="evenodd" clip-rule="evenodd" d="M42.1007 38.1948C35.6116 38.1948 30.2007 43.2259 30.2007 49.0048C30.2007 49.5571 30.6484 50.0048 31.2007 50.0048H53.0007C53.553 50.0048 54.0007 49.5571 54.0007 49.0048C54.0007 43.2259 48.5897 38.1948 42.1007 38.1948ZM42.1007 40.1948C47.2395 40.1948 51.3485 43.8759 51.9301 48.0048H32.2713C32.8529 43.8759 36.9619 40.1948 42.1007 40.1948Z" fill="white"/>
</svg>
